<svg xmlns="http://www.w3.org/2000/svg" width="731" height="771" viewBox="0 0 731 771" fill="none"><path d="M675.323 760.986H97.0332V770.858H675.323V760.986Z" fill="#A4A5A8"></path><path d="M661.104 450.651H542.189V619.854H661.104V450.651Z" fill="#F2F2F2"></path><path d="M666.258 624.992H542.189V444.536H666.258V624.992ZM545.592 614.84H656.813V454.687H545.592V614.84Z" fill="#A4A5A8"></path><path d="M284.966 693.527L309.922 682.225L292.068 638.044L267.113 649.346L284.966 693.527Z" fill="#DAAB7B"></path><path d="M597.524 400.256L620.506 165.748H565.113V400.256H597.524Z" fill="#F04F3E"></path><path d="M589.902 400.256L611.109 166.389H532.422V400.256H589.902Z" fill="#D33E31"></path><path d="M312.109 628.156L596.676 384.45L627.516 424.817L354.737 658.429L312.109 628.156Z" fill="#CED1D3"></path><path d="M616.01 409.767L627.518 424.817L354.739 658.429L338.842 647.135L616.01 409.767Z" fill="#E4E5E7"></path><path d="M596.676 384.45L699.217 296.639L730.057 336.998L627.08 425.195L596.676 384.45Z" fill="#0E080A"></path><path d="M661.34 329.074L654.049 402.089L640.832 413.416L648.115 340.392L661.34 329.074Z" fill="#484849"></path><path d="M635.589 351.127L628.306 424.143L627.081 425.195L617.398 412.224L622.363 362.454L635.589 351.127Z" fill="#484849"></path><path d="M608.011 374.742L605.816 396.705L596.676 384.45L608.011 374.742Z" fill="#484849"></path><path d="M687.19 306.938L679.899 379.954L666.674 391.28L673.965 318.257L687.19 306.938Z" fill="#484849"></path><path d="M710.387 311.253L705.735 357.826L692.518 369.153L699.693 297.255L710.387 311.253Z" fill="#484849"></path><path d="M719.479 346.064L721.501 325.802L730.057 336.997L719.479 346.064Z" fill="#484849"></path><path d="M575.196 620.865H339.15V763.436H575.196V620.865Z" fill="#EEEDED"></path><path d="M276.295 486.547V499.657L509.447 409.865L276.295 486.547Z" fill="#2D3132"></path><path d="M263.719 698.286L252.146 669.649L214.688 686.606C197.805 694.259 186.692 713.181 189.446 733.031L263.719 698.286Z" fill="#808184"></path><path d="M191.781 739.59C191.904 740.051 192.463 740.823 192.644 741.234L193.178 742.549L194.091 744.81L268.89 710.936L333.439 681.699L328.508 669.419L264.46 697.875L189.932 732.686L191.781 739.59Z" fill="#0E080A"></path><path d="M384.139 600.982L280.521 389.053L185.51 498.564V603.061L384.139 600.982Z" fill="#13161A"></path><path d="M167.566 603.061H186.644V498.548H113.16C100.929 498.548 91.0156 509.044 91.0156 521.99C91.0156 566.755 125.284 603.045 167.566 603.045" fill="#DAAB7B"></path><path d="M618.517 275.185L632.079 165.756H611.119L609.031 275.185H618.517Z" fill="#F04F3E"></path><path d="M519.436 434.36H226.576L227.11 282.928L519.436 283.643V434.36Z" fill="#DAAB7B"></path><path d="M227.109 284.433L540.395 390.828V284.433H227.109Z" fill="#C6956D"></path><path d="M310.039 620.865H577.541V180.1C577.541 80.9867 499.339 0.433594 402.281 0.433594H402.486C305.42 0.433594 226.584 80.9867 226.584 180.1V284.433H440.921C449.604 284.378 458.211 286.048 466.243 289.346C474.276 292.644 481.573 297.503 487.712 303.644C493.852 309.784 498.711 317.082 502.007 325.114C505.304 333.147 506.973 341.754 506.918 350.437V350.503C506.918 387.656 477.327 419.885 440.921 419.885H226.576V537.854L310.039 620.865Z" fill="#0E080A"></path><path d="M585.843 165.757H215.43V262.1H585.843V165.757Z" fill="#F04F3E"></path><path d="M305.261 349.475C305.261 358.122 298.636 365.133 290.465 365.133C282.295 365.133 275.67 358.122 275.67 349.475C275.67 340.828 282.295 333.816 290.465 333.816C298.636 333.816 305.261 340.828 305.261 349.475Z" fill="#0E080A"></path><path d="M349.247 349.475C349.247 358.122 342.622 365.133 334.452 365.133C326.281 365.133 319.656 358.122 319.656 349.475C319.656 340.828 326.273 333.816 334.452 333.816C342.63 333.816 349.247 340.828 349.247 349.475Z" fill="#0E080A"></path><path d="M215.355 165.757L530.902 262.593H585.785V165.748L215.355 165.757Z" fill="#D33E31"></path><path d="M573.678 543.246H238.635V563.861H573.678V543.246Z" fill="#2D3132"></path><path d="M573.678 574.004H238.635V594.619H573.678V574.004Z" fill="#2D3132"></path><path d="M256.719 608.593L325.871 528.155H352.265L282.742 608.593H256.719Z" fill="#2D3132"></path><path d="M298.365 608.593L368.29 528.155H393.738L325.161 608.593H298.365Z" fill="#2D3132"></path><path d="M325.647 531.78L259.068 381.68L156.321 382.116L151.595 390.541C150.059 393.437 147.722 395.831 144.864 397.437C142.005 399.043 138.745 399.794 135.472 399.6C132.199 399.406 129.051 398.275 126.403 396.343C123.754 394.41 121.716 391.757 120.533 388.7L117.722 382.124H13.7507L0.0566406 400.224L138.97 431.82L149.253 401.941L325.647 531.78Z" fill="#E4E5E7"></path><path d="M0.0566406 400.224H107.184L190.647 583.728H83.1908L0.0566406 400.224Z" fill="#F04F3E"></path><path d="M138.813 399.163C138.813 408.517 131.654 414.32 122.817 414.32C113.981 414.32 107.101 408.517 107.101 399.163C106.789 400.506 106.91 401.913 107.447 403.183C127.33 447.002 189.833 581.345 189.833 581.345C194.296 591.652 197.132 594.718 205.96 594.718C214.788 594.718 221.988 589.918 221.988 580.564L138.813 399.163Z" fill="#F04F3E"></path><path d="M245.875 400.224L259.092 381.672L312.635 497.956L287.845 495.194L245.875 400.224Z" fill="#CED1D3"></path><path d="M107.102 400.224L157.694 583.728H190.926L107.102 400.224Z" fill="#D33E31"></path><path d="M138.814 400.224H245.942L329.405 583.728H221.949L138.814 400.224Z" fill="#F04F3E"></path><path d="M140.902 435.174H248.03L253.241 448.284H145.785L140.902 435.174Z" fill="#231F20"></path><path d="M336.431 585.586H233.947V656.054H336.431V585.586Z" fill="#0E080A"></path><path d="M148.201 454.835H202.122L207.342 465.759H153.092L148.201 454.835Z" fill="#231F20"></path><path d="M577.54 597.94V410.325L340.254 489.925V594.422L577.54 597.94Z" fill="#0E080A"></path><path d="M323.017 594.422H342.062V489.925H268.603C256.372 489.925 246.459 500.422 246.459 513.368C246.459 558.132 280.735 594.422 323.017 594.422Z" fill="#DAAB7B"></path><path d="M79.5585 382.157L62.6506 341.239H33.1172L49.4826 382.157H79.5585Z" fill="#F04F3E"></path><path d="M577.681 770.866H335.199V620.865H577.681V770.866ZM344.118 761.003H568.516V630.449H344.118V761.003Z" fill="#A4A5A8"></path><path d="M459.448 585.586H356.965V656.054H459.448V585.586Z" fill="#0E080A"></path><path d="M388.651 701.928L378.385 668.885L335.19 683.927C315.709 690.708 301.629 710.624 302.887 732.982L388.651 701.928Z" fill="#808184"></path><path d="M412.709 698.845L441.495 688.826L431.319 656.054H399.418L412.709 698.845Z" fill="#DAAB7B"></path><path d="M304.875 740.56C305.115 741.226 305.39 741.879 305.697 742.517L306.165 744.045L306.987 746.643L393.294 716.608L467.74 690.691L463.342 676.529L389.505 701.574L303.461 732.694L304.875 740.56Z" fill="#0E080A"></path><path d="M633.501 639.425H606.047V701.706H633.501V639.425Z" fill="#0E080A"></path><path fill-rule="evenodd" clip-rule="evenodd" d="M619.77 492.276C621.558 492.276 623.307 492.806 624.793 493.8C626.28 494.793 627.439 496.205 628.124 497.857C628.808 499.51 628.987 501.328 628.638 503.081C628.289 504.835 627.428 506.446 626.164 507.711C624.899 508.975 623.288 509.837 621.534 510.185C619.78 510.534 617.962 510.355 616.31 509.671C614.658 508.987 613.246 507.828 612.252 506.341C611.259 504.854 610.729 503.106 610.729 501.318C610.729 498.92 611.681 496.62 613.377 494.924C615.072 493.228 617.372 492.276 619.77 492.276Z" fill="#909194"></path><path d="M621.967 501.178H617.578V658.01H621.967V501.178Z" fill="#0E080A"></path></svg>